<svg version="1.1" id="Layer_1" xmlns="http://www.w3.org/2000/svg" xmlns:xlink="http://www.w3.org/1999/xlink" x="0px" y="0px"
	 width="100%" viewBox="0 0 1024 1024" enable-background="new 0 0 1024 1024" xml:space="preserve">
<path fill="#FFFFFE" opacity="1.000000" stroke="none" 
	d="
M702.000000,1025.000000 
	C468.000000,1025.000000 234.500000,1025.000000 1.000000,1025.000000 
	C1.000000,683.666687 1.000000,342.333344 1.000000,1.000000 
	C342.333344,1.000000 683.666687,1.000000 1025.000000,1.000000 
	C1025.000000,342.333344 1025.000000,683.666687 1025.000000,1025.000000 
	C917.500000,1025.000000 810.000000,1025.000000 702.000000,1025.000000 
M187.439484,490.044037 
	C187.270309,490.355957 187.101151,490.667877 186.999084,490.985229 
	C186.999084,490.985229 186.963257,490.928284 186.434418,491.336029 
	C185.858398,492.511658 185.282379,493.687317 184.850739,494.917572 
	C184.850739,494.917572 184.859238,494.763458 184.302536,494.909271 
	C184.179962,495.266266 184.057404,495.623260 184.000961,495.983124 
	C184.000961,495.983124 183.963959,495.928223 183.443024,496.440277 
	C179.573776,506.048492 179.344559,515.587952 184.006973,525.008972 
	C184.006973,525.008972 183.971573,525.007812 184.025009,525.599487 
	C184.341171,526.085999 184.657349,526.572510 185.006302,527.012024 
	C185.006302,527.012024 184.949127,527.014099 185.098541,527.649231 
	C186.033463,528.818359 186.968384,529.987488 187.934631,531.056213 
	C187.934631,531.056213 187.829575,531.051392 188.000244,531.650879 
	C188.671127,532.421387 189.342010,533.191833 189.994537,533.997620 
	C189.994537,533.997620 190.033234,533.988708 190.287445,534.569824 
	C191.141968,535.140747 191.996475,535.711609 192.892380,536.141113 
	C192.892380,536.141113 192.745636,536.153564 192.904022,536.758301 
	C193.595306,537.199036 194.286606,537.639832 194.982956,538.008911 
	C194.982956,538.008911 194.918427,538.040527 195.277313,538.533508 
	C195.841980,538.739258 196.406662,538.945068 196.961792,539.051208 
	C196.961792,539.051208 196.866043,539.080322 197.196564,539.613770 
	C197.791718,539.774170 198.386871,539.934509 198.979385,540.020142 
	C198.979385,540.020142 198.909409,540.046631 199.462738,540.582764 
	C202.952698,540.998230 206.442673,541.413696 210.724167,541.924988 
	C214.718582,540.837708 218.804199,540.005615 222.690826,538.616760 
	C236.078339,533.832764 233.436127,535.491882 234.726639,546.543091 
	C237.733215,572.289612 244.674652,596.870667 254.538467,620.710571 
	C264.377289,644.490112 277.831940,666.190186 293.214996,686.722473 
	C295.561127,689.853882 295.464203,691.709229 292.151184,693.878845 
	C287.842682,696.700439 283.647156,699.742065 279.671051,703.014648 
	C269.135071,711.686584 265.583282,726.482910 271.285828,737.072937 
	C278.786591,751.002380 293.808289,758.376282 307.052948,753.978821 
	C316.949432,750.692932 323.764740,743.397278 329.071594,734.618835 
	C330.477661,732.292969 331.987823,730.030029 333.401093,727.815186 
	C380.148010,763.135071 430.700592,787.112244 489.678680,791.529541 
	C488.975098,793.670837 488.582123,795.250244 487.949707,796.727112 
	C484.619232,804.505249 483.247467,812.559509 483.892426,821.031006 
	C484.768341,832.535034 493.158844,842.986877 504.310425,846.092957 
	C523.226440,851.361816 543.184814,835.617249 544.134033,814.911804 
	C544.457764,807.849609 541.931824,801.976074 538.175781,796.327393 
	C536.292053,793.494446 536.287720,791.420105 540.567322,791.027161 
	C544.518188,790.664429 548.418640,789.781494 552.353210,789.209290 
	C599.006592,782.424500 641.528625,765.496155 679.499573,737.413208 
	C684.139954,733.981262 688.659058,730.385315 694.192078,726.128540 
	C696.213379,730.801208 698.180542,734.737671 699.640320,738.854004 
	C702.447266,746.768982 708.130249,751.662537 715.945557,753.546631 
	C720.351746,754.608948 725.188782,754.230896 729.807251,754.003601 
	C746.856323,753.164673 759.729858,737.283569 757.334534,720.383545 
	C755.967407,710.738403 749.732483,704.369995 742.752197,698.556335 
	C738.603882,695.101379 734.177063,691.980835 729.750671,688.615051 
	C730.368103,687.671204 730.783020,686.965393 731.265747,686.309387 
	C745.646362,666.766907 759.673279,647.110107 769.050354,624.401489 
	C779.480225,599.143433 787.548584,573.345337 791.112366,546.218567 
	C792.584961,535.009277 792.540894,534.919434 803.468323,538.591858 
	C810.200439,540.854309 817.040833,542.159302 824.018616,540.543030 
	C835.856323,537.801025 845.826416,524.362610 846.081177,511.001160 
	C846.470520,490.582916 824.557312,470.065887 801.105591,482.696411 
	C798.942871,483.861206 796.703369,484.883423 793.510071,486.460480 
	C792.634338,481.817596 791.970886,477.667328 791.058289,473.572571 
	C787.352661,456.943756 784.470825,440.064331 779.626648,423.770416 
	C769.919067,391.118317 752.855103,362.096649 732.911072,334.687134 
	C728.880493,329.147797 729.181458,329.386993 734.929626,325.369507 
	C740.751892,321.300201 746.771179,317.145874 751.466675,311.917419 
	C758.543030,304.037964 759.935364,294.509674 755.546814,284.556519 
	C752.653992,277.995667 748.232666,272.824921 741.970581,269.081360 
	C734.605896,264.678680 726.589355,266.521851 719.043152,266.922211 
	C708.436218,267.484894 701.740051,274.426392 698.008606,284.233917 
	C696.867371,287.233612 695.497864,290.146423 693.874573,293.935333 
	C671.161133,274.326233 646.331665,259.992981 620.115906,248.060455 
	C593.758606,236.063522 565.634705,230.395020 535.693665,226.975952 
	C543.304504,218.182816 543.297913,208.972092 543.195435,199.543518 
	C543.014587,182.904907 524.851196,169.787155 509.899475,172.697891 
	C488.054291,176.950577 476.263275,203.220322 486.699280,220.099670 
	C487.804504,221.887238 488.518799,223.916473 489.643097,226.322952 
	C487.159302,227.314011 485.130188,228.606033 482.966736,228.896164 
	C476.559723,229.755295 470.061096,229.953033 463.666748,230.881058 
	C424.726440,236.532593 390.329956,253.143829 358.233948,275.106171 
	C350.072083,280.691101 342.274506,286.808411 333.645935,293.170380 
	C331.890350,289.691742 330.159851,286.716827 328.839386,283.569855 
	C322.196411,267.738403 311.755280,261.919464 294.889679,264.973938 
	C281.491943,267.400360 273.326294,275.825867 270.149384,288.610870 
	C267.157074,300.652832 271.156036,310.902740 280.866913,318.679840 
	C285.766174,322.603485 290.925537,326.202332 296.546112,330.378052 
	C279.285828,352.910675 264.924255,377.017151 254.305328,403.332397 
	C243.718430,429.568268 236.503143,456.610291 233.455048,485.356750 
	C223.469650,482.915039 214.216171,478.530212 203.755493,480.350464 
	C201.805435,480.882935 199.855377,481.415405 197.976700,481.975037 
	C197.976700,481.975037 197.978287,481.898682 197.361694,481.966614 
	C196.866013,482.286621 196.370346,482.606659 195.960876,482.945160 
	C195.960876,482.945160 195.958359,482.856995 195.321243,482.975250 
	C194.481125,483.599579 193.640991,484.223907 192.905685,484.896515 
	C192.905685,484.896515 192.912262,484.781281 192.334167,484.916565 
	C192.146484,485.241272 191.958786,485.565948 191.917465,485.890778 
	C191.917465,485.890778 191.876846,485.750153 191.280182,485.858398 
	C191.102356,486.190460 190.924545,486.522522 190.885483,486.833588 
	C190.885483,486.833588 190.813110,486.713348 190.181717,486.829987 
	C189.719788,487.529083 189.257874,488.228210 188.930649,488.958954 
	C188.930649,488.958954 188.939301,488.820831 188.404099,489.000488 
	C188.218826,489.320221 188.033569,489.639954 187.964371,489.963501 
	C187.964371,489.963501 187.952301,489.848022 187.439484,490.044037 
z"/>
<path fill="#3291D3" opacity="1.000000" stroke="none" 
	d="
M204.089584,480.966858 
	C214.216171,478.530212 223.469650,482.915039 233.455048,485.356750 
	C236.503143,456.610291 243.718430,429.568268 254.305328,403.332397 
	C264.924255,377.017151 279.285828,352.910675 296.546112,330.378052 
	C290.925537,326.202332 285.766174,322.603485 280.866913,318.679840 
	C271.156036,310.902740 267.157074,300.652832 270.149384,288.610870 
	C273.326294,275.825867 281.491943,267.400360 294.889679,264.973938 
	C311.755280,261.919464 322.196411,267.738403 328.839386,283.569855 
	C330.159851,286.716827 331.890350,289.691742 333.645935,293.170380 
	C342.274506,286.808411 350.072083,280.691101 358.233948,275.106171 
	C390.329956,253.143829 424.726440,236.532593 463.666748,230.881058 
	C470.061096,229.953033 476.559723,229.755295 482.966736,228.896164 
	C485.130188,228.606033 487.159302,227.314011 489.643097,226.322952 
	C488.518799,223.916473 487.804504,221.887238 486.699280,220.099670 
	C476.263275,203.220322 488.054291,176.950577 509.899475,172.697891 
	C524.851196,169.787155 543.014587,182.904907 543.195435,199.543518 
	C543.297913,208.972092 543.304504,218.182816 535.693665,226.975952 
	C565.634705,230.395020 593.758606,236.063522 620.115906,248.060455 
	C646.331665,259.992981 671.161133,274.326233 693.874573,293.935333 
	C695.497864,290.146423 696.867371,287.233612 698.008606,284.233917 
	C701.740051,274.426392 708.436218,267.484894 719.043152,266.922211 
	C726.589355,266.521851 734.605896,264.678680 741.970581,269.081360 
	C748.232666,272.824921 752.653992,277.995667 755.546814,284.556519 
	C759.935364,294.509674 758.543030,304.037964 751.466675,311.917419 
	C746.771179,317.145874 740.751892,321.300201 734.929626,325.369507 
	C729.181458,329.386993 728.880493,329.147797 732.911072,334.687134 
	C752.855103,362.096649 769.919067,391.118317 779.626648,423.770416 
	C784.470825,440.064331 787.352661,456.943756 791.058289,473.572571 
	C791.970886,477.667328 792.634338,481.817596 793.510071,486.460480 
	C796.703369,484.883423 798.942871,483.861206 801.105591,482.696411 
	C824.557312,470.065887 846.470520,490.582916 846.081177,511.001160 
	C845.826416,524.362610 835.856323,537.801025 824.018616,540.543030 
	C817.040833,542.159302 810.200439,540.854309 803.468323,538.591858 
	C792.540894,534.919434 792.584961,535.009277 791.112366,546.218567 
	C787.548584,573.345337 779.480225,599.143433 769.050354,624.401489 
	C759.673279,647.110107 745.646362,666.766907 731.265747,686.309387 
	C730.783020,686.965393 730.368103,687.671204 729.750671,688.615051 
	C734.177063,691.980835 738.603882,695.101379 742.752197,698.556335 
	C749.732483,704.369995 755.967407,710.738403 757.334534,720.383545 
	C759.729858,737.283569 746.856323,753.164673 729.807251,754.003601 
	C725.188782,754.230896 720.351746,754.608948 715.945557,753.546631 
	C708.130249,751.662537 702.447266,746.768982 699.640320,738.854004 
	C698.180542,734.737671 696.213379,730.801208 694.192078,726.128540 
	C688.659058,730.385315 684.139954,733.981262 679.499573,737.413208 
	C641.528625,765.496155 599.006592,782.424500 552.353210,789.209290 
	C548.418640,789.781494 544.518188,790.664429 540.567322,791.027161 
	C536.287720,791.420105 536.292053,793.494446 538.175781,796.327393 
	C541.931824,801.976074 544.457764,807.849609 544.134033,814.911804 
	C543.184814,835.617249 523.226440,851.361816 504.310425,846.092957 
	C493.158844,842.986877 484.768341,832.535034 483.892426,821.031006 
	C483.247467,812.559509 484.619232,804.505249 487.949707,796.727112 
	C488.582123,795.250244 488.975098,793.670837 489.678680,791.529541 
	C430.700592,787.112244 380.148010,763.135071 333.401093,727.815186 
	C331.987823,730.030029 330.477661,732.292969 329.071594,734.618835 
	C323.764740,743.397278 316.949432,750.692932 307.052948,753.978821 
	C293.808289,758.376282 278.786591,751.002380 271.285828,737.072937 
	C265.583282,726.482910 269.135071,711.686584 279.671051,703.014648 
	C283.647156,699.742065 287.842682,696.700439 292.151184,693.878845 
	C295.464203,691.709229 295.561127,689.853882 293.214996,686.722473 
	C277.831940,666.190186 264.377289,644.490112 254.538467,620.710571 
	C244.674652,596.870667 237.733215,572.289612 234.726639,546.543091 
	C233.436127,535.491882 236.078339,533.832764 222.690826,538.616760 
	C218.804199,540.005615 214.718582,540.837708 210.057953,541.621521 
	C205.897629,540.894226 202.403519,540.470459 198.909409,540.046631 
	C198.909409,540.046631 198.979385,540.020142 198.826691,539.778015 
	C198.071335,539.384033 197.468689,539.232178 196.866028,539.080322 
	C196.866043,539.080322 196.961792,539.051208 196.825714,538.815674 
	C196.099228,538.400208 195.508835,538.220398 194.918427,538.040527 
	C194.918427,538.040527 194.982956,538.008911 194.875137,537.747009 
	C194.093430,537.041260 193.419540,536.597412 192.745636,536.153564 
	C192.745636,536.153564 192.892380,536.141113 192.814056,535.875732 
	C191.834900,535.069763 190.934067,534.529236 190.033234,533.988708 
	C190.033234,533.988708 189.994537,533.997620 189.961151,533.653442 
	C189.228378,532.556580 188.528976,531.804016 187.829575,531.051392 
	C187.829575,531.051392 187.934631,531.056213 187.929108,530.760010 
	C186.932114,529.313843 185.940628,528.164001 184.949127,527.014099 
	C184.949127,527.014099 185.006302,527.012024 184.963348,526.729492 
	C184.604111,525.967224 184.287842,525.487488 183.971573,525.007812 
	C183.971573,525.007812 184.006973,525.008972 183.987274,524.604614 
	C183.315643,518.660095 182.256226,513.127563 182.151260,507.577057 
	C182.078094,503.706909 183.313232,499.812042 183.963959,495.928223 
	C183.963959,495.928223 184.000961,495.983124 184.217682,495.866638 
	C184.576019,495.421265 184.717636,495.092377 184.859253,494.763458 
	C184.859238,494.763458 184.850739,494.917572 185.139099,494.810944 
	C185.939392,493.445648 186.451324,492.186951 186.963257,490.928284 
	C186.963257,490.928284 186.999084,490.985229 187.210358,490.872559 
	C187.598526,490.455933 187.775421,490.151978 187.952301,489.848022 
	C187.952301,489.848022 187.964371,489.963501 188.165680,489.857178 
	C188.557785,489.440826 188.748550,489.130829 188.939301,488.820831 
	C188.939301,488.820831 188.930649,488.958954 189.180832,488.860718 
	C189.891708,488.079437 190.352402,487.396393 190.813110,486.713348 
	C190.813110,486.713348 190.885483,486.833588 191.101257,486.778992 
	C191.503632,486.399628 191.690247,486.074890 191.876862,485.750153 
	C191.876846,485.750153 191.917465,485.890778 192.122742,485.812592 
	C192.522766,485.416687 192.717514,485.098999 192.912262,484.781281 
	C192.912262,484.781281 192.905685,484.896515 193.202515,484.901855 
	C194.319031,484.223816 195.138687,483.540405 195.958359,482.856995 
	C195.958359,482.856995 195.960876,482.945160 196.239563,482.934570 
	C197.004929,482.582245 197.491608,482.240448 197.978271,481.898682 
	C197.978287,481.898682 197.976700,481.975037 198.345428,481.973358 
	C200.505981,481.636749 202.297775,481.301819 204.089584,480.966858 
M353.286102,683.298645 
	C353.618927,683.474426 353.951752,683.650146 354.136444,683.836121 
	C354.136444,683.836121 354.190277,683.697754 354.264801,684.367798 
	C354.958069,684.819885 355.651367,685.272034 356.212311,685.776001 
	C356.212311,685.776001 356.257019,685.641113 356.300812,686.349976 
	C357.244354,686.873047 358.187927,687.396118 359.050812,687.947876 
	C359.050812,687.947876 359.043915,687.862549 359.248138,688.376343 
	C359.556702,688.562317 359.865265,688.748291 360.051086,688.942444 
	C360.051086,688.942444 360.066864,688.820435 360.253967,689.355042 
	C360.571259,689.540771 360.888519,689.726501 361.060760,689.921204 
	C361.060760,689.921204 361.082397,689.777466 361.275635,690.335938 
	C361.795868,690.569824 362.316101,690.803711 363.347015,691.177307 
	C363.566101,691.446350 363.785187,691.715332 364.092712,692.653992 
	C364.783783,693.066162 365.474854,693.478394 366.068085,693.924866 
	C366.068085,693.924866 366.064667,693.821289 366.257599,694.469971 
	C367.190369,694.969910 368.123138,695.469849 369.008423,696.003601 
	C369.008423,696.003601 369.019043,695.946289 369.245850,696.422913 
	C369.544098,696.598450 369.842316,696.773926 370.051392,696.933533 
	C370.051392,696.933533 370.089966,696.851624 370.113129,697.574707 
	C371.085541,698.043884 372.057983,698.513062 373.004486,699.004089 
	C373.004486,699.004089 373.011810,698.971680 373.248932,699.436951 
	C373.546204,699.608704 373.843506,699.780396 374.048492,699.936829 
	C374.048492,699.936829 374.085571,699.850952 374.113983,700.581848 
	C375.104187,701.038452 376.094421,701.495056 377.015106,701.991943 
	C377.015106,701.991943 377.043640,701.916748 377.099030,702.613159 
	C377.820221,702.994202 378.541443,703.375244 379.150055,703.831238 
	C379.150055,703.831238 379.139313,703.696411 379.333191,704.324158 
	C379.925079,704.528198 380.516968,704.732178 381.026215,704.969116 
	C381.026215,704.969116 381.059814,704.886719 381.117676,705.622192 
	C382.134796,706.064453 383.151917,706.506775 384.561096,706.978210 
	C384.846252,707.052490 385.018829,707.233887 385.284851,708.183105 
	C385.888672,708.437866 386.492523,708.692566 387.019470,708.980774 
	C387.019470,708.980774 387.050140,708.902771 387.111237,709.628113 
	C388.117004,710.058594 389.122772,710.489075 390.042145,710.949280 
	C390.042145,710.949280 390.032379,710.858459 390.309235,711.412964 
	C390.881866,711.604309 391.454468,711.795593 392.006195,712.004395 
	C392.006195,712.004395 392.009888,711.979126 392.107330,712.696350 
	C393.123047,713.115601 394.138763,713.534912 395.672302,714.029114 
	C395.813995,714.130798 395.955719,714.232483 396.369690,714.615784 
	C396.579224,714.777466 396.809631,714.899963 397.013947,715.009949 
	C397.013947,715.009949 397.020752,714.956482 397.103699,715.677002 
	C398.122803,716.079956 399.141907,716.482910 400.056641,716.922791 
	C400.056641,716.922791 400.049042,716.812317 400.321533,717.398438 
	C400.919495,717.576172 401.517487,717.753845 402.035950,717.955688 
	C402.035950,717.955688 402.029327,717.872864 402.319122,718.434265 
	C402.908936,718.606995 403.498779,718.779663 404.021027,718.983826 
	C404.021027,718.983826 404.021881,718.909302 404.323273,719.452026 
	C404.905426,719.623047 405.487579,719.794067 406.015045,720.000916 
	C406.015045,720.000916 406.016144,719.935608 406.324738,720.466736 
	C406.902618,720.635071 407.480499,720.803406 408.014404,721.006836 
	C408.014404,721.006836 408.016174,720.950623 408.263214,721.438660 
	C408.595245,721.564758 408.927246,721.690918 409.100281,721.824829 
	C409.100281,721.824829 409.150208,721.673645 409.356506,722.325989 
	C409.978363,722.443848 410.600250,722.561707 411.139221,722.923889 
	C411.139221,722.923889 411.173767,722.668213 411.403748,723.350037 
	C412.307587,723.542419 413.211456,723.734802 414.033295,723.952332 
	C414.033295,723.952332 414.026031,723.866882 414.362366,724.455322 
	C415.003082,724.609253 415.643829,724.763123 416.664581,724.889893 
	C416.664581,724.889893 417.006439,725.058044 417.114441,725.774109 
	C419.112274,726.494751 421.110107,727.215393 423.031250,727.958313 
	C423.031250,727.958313 423.032196,727.878479 423.309448,728.566956 
	C424.901123,729.028198 426.492828,729.489380 428.017609,729.985718 
	C428.017609,729.985718 428.026520,729.910706 428.313049,730.590332 
	C430.961548,731.369690 433.610077,732.149048 436.652130,732.885132 
	C436.652130,732.885132 437.011627,733.050964 437.333679,733.682983 
	C438.601196,734.420654 439.783600,735.468323 441.150604,735.843689 
	C447.813446,737.672729 454.460266,739.665955 461.235809,740.953979 
	C471.213593,742.850708 481.295563,744.199341 492.151550,745.120361 
	C501.269928,745.165100 510.448639,745.895569 519.492981,745.099304 
	C534.341736,743.792053 549.350159,742.618530 563.861145,739.430420 
	C654.193237,719.584229 729.970703,644.615723 745.036865,545.731384 
	C746.023560,538.356628 747.346863,531.005859 747.876648,523.598450 
	C748.220642,518.788879 747.407654,513.896545 746.965820,508.276459 
	C747.017822,507.502808 747.069885,506.729126 747.676636,505.348907 
	C747.789612,504.536438 748.070740,503.706909 747.990295,502.914062 
	C746.795959,491.142181 745.608765,479.368866 744.257446,467.614532 
	C744.076355,466.039886 743.009155,464.567078 742.034302,462.276367 
	C741.957031,461.615326 741.943359,460.939423 741.793335,460.295319 
	C733.396240,424.243439 718.200378,391.381042 695.081665,362.406555 
	C652.732788,309.331329 597.322449,280.395203 529.762268,273.052643 
	C528.074036,272.701630 526.371460,271.989716 524.699829,272.056213 
	C510.217896,272.632385 495.724579,273.115112 481.273499,274.161743 
	C476.800690,274.485687 472.447113,276.456207 467.262726,277.972015 
	C464.517426,278.567108 461.741180,279.046844 459.031433,279.774323 
	C401.499695,295.219818 355.425262,327.364014 321.011230,375.817535 
	C301.292999,403.579956 288.488617,434.503296 282.955933,468.244049 
	C281.537537,476.894104 280.483307,485.603851 278.723755,493.928772 
	C278.479218,503.162750 278.218506,512.396362 278.000031,521.630920 
	C277.935486,524.358521 277.990082,527.088989 277.990082,529.818115 
	C278.243744,529.798462 278.497437,529.778809 278.751099,529.759155 
	C278.876617,529.113892 279.002106,528.468689 279.560944,528.537598 
	C283.525574,578.242249 301.765594,622.187012 333.051758,661.591125 
	C334.099396,662.702332 335.147034,663.813538 336.066498,664.950928 
	C336.066498,664.950928 336.065094,664.820129 336.263275,665.357178 
	C336.580139,665.552429 336.897003,665.747681 337.639435,666.070251 
	C337.910095,666.250061 338.044434,666.502441 338.240936,667.332642 
	C338.523010,667.548462 338.805084,667.764282 339.542328,668.146484 
	C339.831604,668.342468 339.987549,668.614807 340.083588,669.602295 
	C340.698456,670.077087 341.313324,670.551880 341.998077,671.020447 
	C341.998077,671.020447 341.980286,671.088318 342.190887,671.409729 
	C342.344788,671.618408 342.534912,671.786011 343.043671,672.086121 
	C343.043671,672.086121 343.057861,672.417236 343.221649,673.071960 
	C343.547699,673.359070 343.873749,673.646118 344.089264,673.832275 
	C344.089264,673.832275 344.207642,673.740601 344.116516,674.468628 
	C346.837524,676.895447 349.558563,679.322205 352.200439,681.844971 
	C352.200439,681.844971 352.149323,681.731567 352.282410,682.304688 
	C352.615356,682.478638 352.948303,682.652588 353.141754,682.860901 
	C353.141754,682.860901 353.169647,682.720032 353.286102,683.298645 
z"/>
<path fill="#1880CC" opacity="1.000000" stroke="none" 
	d="
M183.703491,496.184265 
	C183.313232,499.812042 182.078094,503.706909 182.151260,507.577057 
	C182.256226,513.127563 183.315643,518.660095 183.975342,524.617920 
	C179.344559,515.587952 179.573776,506.048492 183.703491,496.184265 
z"/>
<path fill="#1880CC" opacity="1.000000" stroke="none" 
	d="
M199.186066,540.314697 
	C202.403519,540.470459 205.897629,540.894226 209.662186,541.573608 
	C206.442673,541.413696 202.952698,540.998230 199.186066,540.314697 
z"/>
<path fill="#1880CC" opacity="1.000000" stroke="none" 
	d="
M203.922546,480.658661 
	C202.297775,481.301819 200.505981,481.636749 198.309753,481.959778 
	C199.855377,481.415405 201.805435,480.882935 203.922546,480.658661 
z"/>
<path fill="#1880CC" opacity="1.000000" stroke="none" 
	d="
M185.023834,527.331665 
	C185.940628,528.164001 186.932114,529.313843 187.913452,530.810181 
	C186.968384,529.987488 186.033463,528.818359 185.023834,527.331665 
z"/>
<path fill="#1880CC" opacity="1.000000" stroke="none" 
	d="
M186.698837,491.132141 
	C186.451324,492.186951 185.939392,493.445648 185.066925,494.783630 
	C185.282379,493.687317 185.858398,492.511658 186.698837,491.132141 
z"/>
<path fill="#1880CC" opacity="1.000000" stroke="none" 
	d="
M190.160339,534.279297 
	C190.934067,534.529236 191.834900,535.069763 192.793365,535.946411 
	C191.996475,535.711609 191.141968,535.140747 190.160339,534.279297 
z"/>
<path fill="#1880CC" opacity="1.000000" stroke="none" 
	d="
M187.914917,531.351135 
	C188.528976,531.804016 189.228378,532.556580 189.970337,533.635742 
	C189.342010,533.191833 188.671127,532.421387 187.914917,531.351135 
z"/>
<path fill="#1880CC" opacity="1.000000" stroke="none" 
	d="
M195.639801,482.916138 
	C195.138687,483.540405 194.319031,484.223816 193.150116,484.877716 
	C193.640991,484.223907 194.481125,483.599579 195.639801,482.916138 
z"/>
<path fill="#1880CC" opacity="1.000000" stroke="none" 
	d="
M190.497406,486.771667 
	C190.352402,487.396393 189.891708,488.079437 189.113495,488.844910 
	C189.257874,488.228210 189.719788,487.529083 190.497406,486.771667 
z"/>
<path fill="#1880CC" opacity="1.000000" stroke="none" 
	d="
M192.824829,536.455933 
	C193.419540,536.597412 194.093430,537.041260 194.872604,537.782837 
	C194.286606,537.639832 193.595306,537.199036 192.824829,536.455933 
z"/>
<path fill="#1880CC" opacity="1.000000" stroke="none" 
	d="
M197.031296,539.347046 
	C197.468689,539.232178 198.071335,539.384033 198.828003,539.815430 
	C198.386871,539.934509 197.791718,539.774170 197.031296,539.347046 
z"/>
<path fill="#1880CC" opacity="1.000000" stroke="none" 
	d="
M195.097870,538.286987 
	C195.508835,538.220398 196.099228,538.400208 196.830475,538.865479 
	C196.406662,538.945068 195.841980,538.739258 195.097870,538.286987 
z"/>
<path fill="#1880CC" opacity="1.000000" stroke="none" 
	d="
M183.998291,525.303650 
	C184.287842,525.487488 184.604111,525.967224 184.946960,526.752930 
	C184.657349,526.572510 184.341171,526.085999 183.998291,525.303650 
z"/>
<path fill="#1880CC" opacity="1.000000" stroke="none" 
	d="
M197.669983,481.932617 
	C197.491608,482.240448 197.004929,482.582245 196.196457,482.925354 
	C196.370346,482.606659 196.866013,482.286621 197.669983,481.932617 
z"/>
<path fill="#1880CC" opacity="1.000000" stroke="none" 
	d="
M191.578522,485.804260 
	C191.690247,486.074890 191.503632,486.399628 191.031891,486.789459 
	C190.924545,486.522522 191.102356,486.190460 191.578522,485.804260 
z"/>
<path fill="#1880CC" opacity="1.000000" stroke="none" 
	d="
M192.623215,484.848938 
	C192.717514,485.098999 192.522766,485.416687 192.049561,485.812500 
	C191.958786,485.565948 192.146484,485.241272 192.623215,484.848938 
z"/>
<path fill="#1880CC" opacity="1.000000" stroke="none" 
	d="
M188.671707,488.910645 
	C188.748550,489.130829 188.557785,489.440826 188.107666,489.855255 
	C188.033569,489.639954 188.218826,489.320221 188.671707,488.910645 
z"/>
<path fill="#1880CC" opacity="1.000000" stroke="none" 
	d="
M187.695892,489.946045 
	C187.775421,490.151978 187.598526,490.455933 187.176819,490.869873 
	C187.101151,490.667877 187.270309,490.355957 187.695892,489.946045 
z"/>
<path fill="#1880CC" opacity="1.000000" stroke="none" 
	d="
M184.580902,494.836365 
	C184.717636,495.092377 184.576019,495.421265 184.184631,495.865234 
	C184.057404,495.623260 184.179962,495.266266 184.580902,494.836365 
z"/>
<path fill="#FFFFFE" opacity="1.000000" stroke="none" 
	d="
M744.335876,545.954895 
	C729.970703,644.615723 654.193237,719.584229 563.861145,739.430420 
	C549.350159,742.618530 534.341736,743.792053 519.492981,745.099304 
	C510.448639,745.895569 501.269928,745.165100 491.730652,745.041504 
	C490.880188,744.741333 490.464294,744.360046 490.019043,744.321960 
	C471.879761,742.769104 454.359406,738.317871 437.011627,733.050964 
	C437.011627,733.050964 436.652130,732.885132 436.193970,732.649414 
	C433.166046,731.579346 430.596283,730.744995 428.026520,729.910645 
	C428.026520,729.910706 428.017609,729.985718 427.819153,729.710205 
	C426.091187,728.915894 424.561676,728.397156 423.032196,727.878479 
	C423.032196,727.878479 423.031250,727.958313 422.855286,727.680908 
	C420.788330,726.621643 418.897400,725.839844 417.006439,725.058044 
	C417.006439,725.058044 416.664581,724.889893 416.271118,724.648193 
	C415.260468,724.226562 414.643250,724.046753 414.026031,723.866943 
	C414.026031,723.866882 414.033295,723.952332 413.870850,723.671875 
	C412.863495,723.150391 412.018616,722.909302 411.173767,722.668213 
	C411.173767,722.668213 411.139221,722.923889 411.039978,722.529541 
	C410.343903,721.981384 409.747040,721.827515 409.150208,721.673645 
	C409.150208,721.673645 409.100281,721.824829 409.090424,721.552429 
	C408.725769,721.170227 408.370972,721.060425 408.016174,720.950562 
	C408.016174,720.950623 408.014404,721.006836 407.827942,720.779846 
	C407.099701,720.347107 406.557922,720.141357 406.016144,719.935608 
	C406.016144,719.935608 406.015045,720.000916 405.844482,719.759399 
	C405.123260,719.315063 404.572571,719.112183 404.021881,718.909302 
	C404.021881,718.909302 404.021027,718.983826 403.865967,718.731995 
	C403.150391,718.277710 402.589844,718.075317 402.029327,717.872864 
	C402.029327,717.872864 402.035950,717.955688 401.901764,717.689331 
	C401.194733,717.219360 400.621887,717.015808 400.049042,716.812317 
	C400.049042,716.812317 400.056641,716.922791 399.946442,716.631287 
	C398.897736,715.878723 397.959229,715.417603 397.020752,714.956482 
	C397.020752,714.956482 397.013947,715.009949 396.905212,714.846558 
	C396.609589,714.474426 396.376556,714.358032 396.097412,714.334106 
	C395.955719,714.232483 395.813995,714.130798 395.223389,713.737488 
	C393.852936,712.956970 392.931427,712.468018 392.009888,711.979126 
	C392.009888,711.979126 392.006195,712.004395 391.811920,711.785767 
	C391.089233,711.330933 390.560791,711.094727 390.032379,710.858459 
	C390.032379,710.858459 390.042145,710.949280 389.930725,710.658386 
	C388.896240,709.879272 387.973175,709.390991 387.050140,708.902771 
	C387.050140,708.902771 387.019470,708.980774 386.885559,708.698425 
	C386.194061,708.118164 385.636444,707.820312 385.078796,707.522461 
	C385.018829,707.233887 384.846252,707.052490 384.183075,706.703064 
	C382.889954,705.914185 381.974884,705.400452 381.059814,704.886719 
	C381.059814,704.886719 381.026215,704.969116 380.914612,704.685059 
	C380.248413,704.166138 379.693878,703.931274 379.139313,703.696411 
	C379.139313,703.696411 379.150055,703.831238 379.083557,703.523438 
	C378.359253,702.782715 377.701447,702.349731 377.043640,701.916748 
	C377.043640,701.916748 377.015106,701.991943 376.883972,701.707642 
	C375.863739,700.899231 374.974670,700.375061 374.085571,699.850952 
	C374.085571,699.850952 374.048492,699.936829 373.986023,699.699951 
	C373.619629,699.299316 373.315704,699.135498 373.011810,698.971680 
	C373.011810,698.971680 373.004486,699.004089 372.825958,698.753662 
	C371.794922,697.952637 370.942444,697.402161 370.089966,696.851624 
	C370.089966,696.851624 370.051392,696.933533 369.993103,696.692200 
	C369.629578,696.282654 369.324310,696.114441 369.019043,695.946289 
	C369.019043,695.946289 369.008423,696.003601 368.851898,695.731689 
	C367.818481,694.913635 366.941589,694.367493 366.064667,693.821289 
	C366.064667,693.821289 366.068085,693.924866 365.991058,693.638550 
	C365.277435,692.896301 364.640839,692.440369 364.004242,691.984375 
	C363.785187,691.715332 363.566101,691.446350 362.912720,690.895752 
	C362.013092,690.335327 361.547760,690.056396 361.082397,689.777466 
	C361.082397,689.777466 361.060760,689.921204 361.041534,689.649292 
	C360.703827,689.191772 360.385345,689.006104 360.066864,688.820435 
	C360.066864,688.820435 360.051086,688.942444 360.011108,688.680908 
	C359.662048,688.233704 359.352997,688.048157 359.043915,687.862549 
	C359.043915,687.862549 359.050812,687.947876 358.948364,687.645874 
	C357.982971,686.776367 357.119995,686.208740 356.257019,685.641113 
	C356.257019,685.641113 356.212311,685.776001 356.207916,685.444580 
	C355.532440,684.641357 354.861359,684.169556 354.190277,683.697754 
	C354.190277,683.697754 354.136444,683.836121 354.144287,683.546875 
	C353.824646,683.078369 353.497131,682.899231 353.169647,682.720032 
	C353.169647,682.720032 353.141754,682.860901 353.142670,682.560364 
	C352.812164,682.083740 352.480743,681.907654 352.149323,681.731567 
	C352.149323,681.731567 352.200439,681.844971 352.100891,681.498352 
	C349.403442,678.681335 346.805542,676.210999 344.207642,673.740601 
	C344.207642,673.740601 344.089264,673.832275 344.073761,673.555542 
	C343.724792,672.991577 343.391327,672.704407 343.057861,672.417236 
	C343.057861,672.417236 343.043671,672.086121 342.827759,671.817505 
	C342.451508,671.326599 342.240997,671.173035 341.980286,671.088318 
	C341.980286,671.088318 341.998077,671.020447 341.845154,670.760620 
	C341.131531,669.988403 340.570831,669.475952 340.010162,668.963562 
	C339.987549,668.614807 339.831604,668.342468 339.215118,667.812744 
	C338.606079,667.261780 338.324219,667.044556 338.042389,666.827393 
	C338.044434,666.502441 337.910095,666.250061 337.309998,665.749146 
	C336.675415,665.225403 336.370270,665.022766 336.065094,664.820129 
	C336.065094,664.820129 336.066498,664.950928 336.024109,664.629272 
	C334.977203,663.172180 333.972687,662.036865 332.968170,660.901489 
	C301.765594,622.187012 283.525574,578.242249 279.363647,527.723877 
	C279.198181,516.035522 279.229980,505.160858 279.261780,494.286194 
	C280.483307,485.603851 281.537537,476.894104 282.955933,468.244049 
	C288.488617,434.503296 301.292999,403.579956 321.011230,375.817535 
	C355.425262,327.364014 401.499695,295.219818 459.031433,279.774323 
	C461.741180,279.046844 464.517426,278.567108 468.038208,277.754883 
	C471.896606,277.035583 474.964844,276.232330 478.064880,276.081146 
	C495.363007,275.237732 512.668823,274.552124 529.971985,273.812592 
	C597.322449,280.395203 652.732788,309.331329 695.081665,362.406555 
	C718.200378,391.381042 733.396240,424.243439 741.793335,460.295319 
	C741.943359,460.939423 741.957031,461.615326 742.242432,463.046631 
	C744.007690,477.863068 745.564819,491.909271 747.121887,505.955475 
	C747.069885,506.729126 747.017822,507.502808 746.984619,509.115417 
	C746.114197,521.954529 745.225037,533.954712 744.335876,545.954895 
M515.422668,493.031738 
	C515.224243,493.335052 515.025818,493.638367 514.933960,493.936249 
	C514.933960,493.936249 514.900574,493.834961 514.327148,494.072357 
	C513.785217,494.686310 513.243225,495.300262 512.101990,496.169098 
	C503.018799,504.986511 493.773376,513.645569 484.933289,522.700378 
	C481.456909,526.261230 479.152802,526.375000 475.569092,522.896179 
	C460.269531,508.044464 444.818481,493.346069 429.267548,478.757141 
	C419.447601,469.544617 409.945953,459.835663 399.224915,451.782715 
	C387.233337,442.775513 369.630676,446.135925 359.670898,457.749329 
	C351.320312,467.486237 351.947693,484.122498 361.454254,494.879578 
	C398.619812,536.933899 435.876770,578.907410 473.133575,620.881042 
	C480.655884,629.355713 492.598816,629.237854 499.863861,620.403015 
	C521.104492,594.572815 542.193970,568.618286 563.339600,542.709900 
	C595.219421,503.649506 627.169983,464.646332 658.903259,425.467255 
	C664.229919,418.890717 670.751953,413.049957 671.868164,403.587891 
	C673.249573,391.877777 669.581116,382.630432 659.848267,378.121216 
	C649.200195,373.187927 638.739197,373.601837 629.679321,381.657318 
	C621.095642,389.289398 612.918945,397.385956 604.684082,405.402313 
	C586.072815,423.519775 567.536011,441.713776 548.461487,460.080780 
	C548.256165,460.375092 548.050842,460.669403 547.317749,461.142853 
	C546.864136,461.712799 546.410522,462.282776 545.403381,463.113617 
	C544.877686,463.725342 544.352051,464.337067 543.387817,465.055115 
	C543.096985,465.218781 542.949768,465.467468 542.442871,466.039490 
	C542.250854,466.347931 542.058838,466.656342 541.969666,466.968964 
	C541.969666,466.968964 541.960327,466.866455 541.458130,467.073669 
	C541.261536,467.370544 541.064941,467.667419 540.967346,467.969116 
	C540.967346,467.969116 540.958191,467.870422 540.442444,468.056244 
	C540.245056,468.355072 540.047729,468.653900 539.961121,468.961731 
	C539.961121,468.961731 539.952942,468.850952 539.436035,469.053375 
	C539.235168,469.355164 539.034302,469.656952 538.397034,470.080780 
	C538.117676,470.256439 537.970947,470.509094 537.443726,471.048157 
	C537.245361,471.350372 537.046936,471.652588 536.962341,471.962402 
	C536.962341,471.962402 536.953186,471.848755 536.431213,472.048004 
	C536.224121,472.349518 536.016968,472.651031 535.375427,473.060425 
	C535.091492,473.228790 534.948975,473.478027 534.439026,474.037689 
	C534.241211,474.344391 534.043396,474.651093 533.962402,474.960968 
	C533.962402,474.960968 533.948608,474.844940 533.430908,475.041199 
	C533.234741,475.344391 533.038513,475.647614 532.958191,475.958557 
	C532.958191,475.958557 532.947571,475.842926 532.432434,476.042175 
	C532.239197,476.346680 532.045959,476.651215 531.962280,476.962677 
	C531.962280,476.962677 531.952576,476.853363 531.438354,477.050629 
	C531.242981,477.352112 531.047607,477.653595 530.962036,477.962128 
	C530.962036,477.962128 530.952271,477.852600 530.435730,478.049103 
	C530.239807,478.350311 530.043945,478.651520 529.962158,478.963287 
	C529.962158,478.963287 529.956177,478.848816 529.441223,479.054871 
	C529.235962,479.355804 529.030762,479.656738 528.301147,480.129242 
	C527.851624,480.693237 527.402100,481.257263 526.439270,482.050720 
	C526.224792,482.350708 526.010315,482.650696 525.275024,483.123322 
	C524.834167,483.689026 524.393311,484.254730 523.435364,485.045929 
	C523.222290,485.347290 523.009155,485.648651 522.242981,486.160492 
	C521.478271,487.043121 520.713562,487.925751 519.433960,489.033539 
	C519.232666,489.338776 519.031311,489.643982 518.955872,489.953064 
	C518.955872,489.953064 518.939697,489.828156 518.418030,490.024414 
	C518.225952,490.333130 518.033813,490.641846 517.958008,490.958191 
	C517.958008,490.958191 517.947021,490.842194 517.428467,491.037262 
	C517.234802,491.342743 517.041138,491.648193 516.960510,491.960541 
	C516.960510,491.960541 516.949890,491.847809 516.432129,492.042633 
	C516.235168,492.345154 516.038147,492.647675 515.957642,492.957184 
	C515.957642,492.957184 515.945740,492.841064 515.422668,493.031738 
z"/>
<path fill="#1C81CB" opacity="1.000000" stroke="none" 
	d="
M529.867126,273.432617 
	C512.668823,274.552124 495.363007,275.237732 478.064880,276.081146 
	C474.964844,276.232330 471.896606,277.035583 468.426331,277.605316 
	C472.447113,276.456207 476.800690,274.485687 481.273499,274.161743 
	C495.724579,273.115112 510.217896,272.632385 524.699829,272.056213 
	C526.371460,271.989716 528.074036,272.701630 529.867126,273.432617 
z"/>
<path fill="#1F84CD" opacity="1.000000" stroke="none" 
	d="
M437.172668,733.366943 
	C454.359406,738.317871 471.879761,742.769104 490.019043,744.321960 
	C490.464294,744.360046 490.880188,744.741333 491.321472,745.372009 
	C481.295563,744.199341 471.213593,742.850708 461.235809,740.953979 
	C454.460266,739.665955 447.813446,737.672729 441.150604,735.843689 
	C439.783600,735.468323 438.601196,734.420654 437.172668,733.366943 
z"/>
<path fill="#1780CB" opacity="1.000000" stroke="none" 
	d="
M747.399292,505.652191 
	C745.564819,491.909271 744.007690,477.863068 742.401489,463.432007 
	C743.009155,464.567078 744.076355,466.039886 744.257446,467.614532 
	C745.608765,479.368866 746.795959,491.142181 747.990295,502.914062 
	C748.070740,503.706909 747.789612,504.536438 747.399292,505.652191 
z"/>
<path fill="#1780CB" opacity="1.000000" stroke="none" 
	d="
M744.686401,545.843140 
	C745.225037,533.954712 746.114197,521.954529 747.058167,509.497864 
	C747.407654,513.896545 748.220642,518.788879 747.876648,523.598450 
	C747.346863,531.005859 746.023560,538.356628 744.686401,545.843140 
z"/>
<path fill="#0A76C9" opacity="1.000000" stroke="none" 
	d="
M278.992767,494.107483 
	C279.229980,505.160858 279.198181,516.035522 279.146973,527.366821 
	C279.002106,528.468689 278.876617,529.113892 278.751099,529.759155 
	C278.497437,529.778809 278.243744,529.798462 277.990082,529.818115 
	C277.990082,527.088989 277.935486,524.358521 278.000031,521.630920 
	C278.218506,512.396362 278.479218,503.162750 278.992767,494.107483 
z"/>
<path fill="#1F84CD" opacity="1.000000" stroke="none" 
	d="
M344.162079,674.104614 
	C346.805542,676.210999 349.403442,678.681335 352.140442,681.450378 
	C349.558563,679.322205 346.837524,676.895447 344.162079,674.104614 
z"/>
<path fill="#1F84CD" opacity="1.000000" stroke="none" 
	d="
M428.169800,730.250488 
	C430.596283,730.744995 433.166046,731.579346 435.997192,732.671021 
	C433.610077,732.149048 430.961548,731.369690 428.169800,730.250488 
z"/>
<path fill="#1F84CD" opacity="1.000000" stroke="none" 
	d="
M417.060425,725.416077 
	C418.897400,725.839844 420.788330,726.621643 422.893616,727.669800 
	C421.110107,727.215393 419.112274,726.494751 417.060425,725.416077 
z"/>
<path fill="#1F84CD" opacity="1.000000" stroke="none" 
	d="
M423.170837,728.222717 
	C424.561676,728.397156 426.091187,728.915894 427.852600,729.692627 
	C426.492828,729.489380 424.901123,729.028198 423.170837,728.222717 
z"/>
<path fill="#1F84CD" opacity="1.000000" stroke="none" 
	d="
M333.009949,661.246338 
	C333.972687,662.036865 334.977203,663.172180 336.088165,664.616150 
	C335.147034,663.813538 334.099396,662.702332 333.009949,661.246338 
z"/>
<path fill="#1F84CD" opacity="1.000000" stroke="none" 
	d="
M370.101562,697.213135 
	C370.942444,697.402161 371.794922,697.952637 372.838928,698.742676 
	C372.057983,698.513062 371.085541,698.043884 370.101562,697.213135 
z"/>
<path fill="#1F84CD" opacity="1.000000" stroke="none" 
	d="
M397.062225,715.316772 
	C397.959229,715.417603 398.897736,715.878723 399.998627,716.612793 
	C399.141907,716.482910 398.122803,716.079956 397.062225,715.316772 
z"/>
<path fill="#1F84CD" opacity="1.000000" stroke="none" 
	d="
M374.099792,700.216431 
	C374.974670,700.375061 375.863739,700.899231 376.918732,701.687500 
	C376.094421,701.495056 375.104187,701.038452 374.099792,700.216431 
z"/>
<path fill="#1F84CD" opacity="1.000000" stroke="none" 
	d="
M392.058594,712.337769 
	C392.931427,712.468018 393.852936,712.956970 394.964478,713.700012 
	C394.138763,713.534912 393.123047,713.115601 392.058594,712.337769 
z"/>
<path fill="#1F84CD" opacity="1.000000" stroke="none" 
	d="
M381.088745,705.254456 
	C381.974884,705.400452 382.889954,705.914185 383.987061,706.688477 
	C383.151917,706.506775 382.134796,706.064453 381.088745,705.254456 
z"/>
<path fill="#1F84CD" opacity="1.000000" stroke="none" 
	d="
M387.080688,709.265442 
	C387.973175,709.390991 388.896240,709.879272 389.973877,710.643555 
	C389.122772,710.489075 388.117004,710.058594 387.080688,709.265442 
z"/>
<path fill="#1F84CD" opacity="1.000000" stroke="none" 
	d="
M366.161133,694.145630 
	C366.941589,694.367493 367.818481,694.913635 368.875641,695.714844 
	C368.123138,695.469849 367.190369,694.969910 366.161133,694.145630 
z"/>
<path fill="#1F84CD" opacity="1.000000" stroke="none" 
	d="
M356.278931,685.995544 
	C357.119995,686.208740 357.982971,686.776367 358.988708,687.631592 
	C358.187927,687.396118 357.244354,686.873047 356.278931,685.995544 
z"/>
<path fill="#1F84CD" opacity="1.000000" stroke="none" 
	d="
M364.048462,692.319214 
	C364.640839,692.440369 365.277435,692.896301 366.039978,693.621460 
	C365.474854,693.478394 364.783783,693.066162 364.048462,692.319214 
z"/>
<path fill="#1F84CD" opacity="1.000000" stroke="none" 
	d="
M354.227539,684.032776 
	C354.861359,684.169556 355.532440,684.641357 356.274109,685.418701 
	C355.651367,685.272034 354.958069,684.819885 354.227539,684.032776 
z"/>
<path fill="#1F84CD" opacity="1.000000" stroke="none" 
	d="
M377.071350,702.264954 
	C377.701447,702.349731 378.359253,702.782715 379.139832,703.485962 
	C378.541443,703.375244 377.820221,702.994202 377.071350,702.264954 
z"/>
<path fill="#1F84CD" opacity="1.000000" stroke="none" 
	d="
M411.288757,723.009155 
	C412.018616,722.909302 412.863495,723.150391 413.911835,723.659302 
	C413.211456,723.734802 412.307587,723.542419 411.288757,723.009155 
z"/>
<path fill="#1F84CD" opacity="1.000000" stroke="none" 
	d="
M340.046875,669.282959 
	C340.570831,669.475952 341.131531,669.988403 341.810181,670.763672 
	C341.313324,670.551880 340.698456,670.077087 340.046875,669.282959 
z"/>
<path fill="#1F84CD" opacity="1.000000" stroke="none" 
	d="
M361.179016,690.056702 
	C361.547760,690.056396 362.013092,690.335327 362.657410,690.825928 
	C362.316101,690.803711 361.795868,690.569824 361.179016,690.056702 
z"/>
<path fill="#1F84CD" opacity="1.000000" stroke="none" 
	d="
M379.236267,704.010254 
	C379.693878,703.931274 380.248413,704.166138 380.955933,704.668579 
	C380.516968,704.732178 379.925079,704.528198 379.236267,704.010254 
z"/>
<path fill="#1F84CD" opacity="1.000000" stroke="none" 
	d="
M385.181824,707.852783 
	C385.636444,707.820312 386.194061,708.118164 386.924011,708.681702 
	C386.492523,708.692566 385.888672,708.437866 385.181824,707.852783 
z"/>
<path fill="#1F84CD" opacity="1.000000" stroke="none" 
	d="
M390.170807,711.135742 
	C390.560791,711.094727 391.089233,711.330933 391.822388,711.777100 
	C391.454468,711.795593 390.881866,711.604309 390.170807,711.135742 
z"/>
<path fill="#1F84CD" opacity="1.000000" stroke="none" 
	d="
M400.185303,717.105347 
	C400.621887,717.015808 401.194733,717.219360 401.941528,717.677246 
	C401.517487,717.753845 400.919495,717.576172 400.185303,717.105347 
z"/>
<path fill="#1F84CD" opacity="1.000000" stroke="none" 
	d="
M402.174225,718.153564 
	C402.589844,718.075317 403.150391,718.277710 403.899750,718.716248 
	C403.498779,718.779663 402.908936,718.606995 402.174225,718.153564 
z"/>
<path fill="#1F84CD" opacity="1.000000" stroke="none" 
	d="
M404.172577,719.180664 
	C404.572571,719.112183 405.123260,719.315063 405.871826,719.741516 
	C405.487579,719.794067 404.905426,719.623047 404.172577,719.180664 
z"/>
<path fill="#1F84CD" opacity="1.000000" stroke="none" 
	d="
M406.170441,720.201172 
	C406.557922,720.141357 407.099701,720.347107 407.849915,720.762329 
	C407.480499,720.803406 406.902618,720.635071 406.170441,720.201172 
z"/>
<path fill="#1F84CD" opacity="1.000000" stroke="none" 
	d="
M409.253357,721.999817 
	C409.747040,721.827515 410.343903,721.981384 411.081421,722.407410 
	C410.600250,722.561707 409.978363,722.443848 409.253357,721.999817 
z"/>
<path fill="#1F84CD" opacity="1.000000" stroke="none" 
	d="
M414.194214,724.161133 
	C414.643250,724.046753 415.260468,724.226562 416.081116,724.661743 
	C415.643829,724.763123 415.003082,724.609253 414.194214,724.161133 
z"/>
<path fill="#1F84CD" opacity="1.000000" stroke="none" 
	d="
M396.233551,714.474976 
	C396.376556,714.358032 396.609589,714.474426 396.928680,714.833252 
	C396.809631,714.899963 396.579224,714.777466 396.233551,714.474976 
z"/>
<path fill="#1F84CD" opacity="1.000000" stroke="none" 
	d="
M373.130371,699.204346 
	C373.315704,699.135498 373.619629,699.299316 374.032166,699.707642 
	C373.843506,699.780396 373.546204,699.608704 373.130371,699.204346 
z"/>
<path fill="#1F84CD" opacity="1.000000" stroke="none" 
	d="
M369.132446,696.184570 
	C369.324310,696.114441 369.629578,696.282654 370.037689,696.700195 
	C369.842316,696.773926 369.544098,696.598450 369.132446,696.184570 
z"/>
<path fill="#1F84CD" opacity="1.000000" stroke="none" 
	d="
M408.139709,721.194580 
	C408.370972,721.060425 408.725769,721.170227 409.169922,721.548523 
	C408.927246,721.690918 408.595245,721.564758 408.139709,721.194580 
z"/>
<path fill="#1F84CD" opacity="1.000000" stroke="none" 
	d="
M360.160400,689.087769 
	C360.385345,689.006104 360.703827,689.191772 361.114075,689.644836 
	C360.888519,689.726501 360.571259,689.540771 360.160400,689.087769 
z"/>
<path fill="#1F84CD" opacity="1.000000" stroke="none" 
	d="
M359.146027,688.119446 
	C359.352997,688.048157 359.662048,688.233704 360.072510,688.676758 
	C359.865265,688.748291 359.556702,688.562317 359.146027,688.119446 
z"/>
<path fill="#1F84CD" opacity="1.000000" stroke="none" 
	d="
M336.164185,665.088623 
	C336.370270,665.022766 336.675415,665.225403 337.097229,665.685547 
	C336.897003,665.747681 336.580139,665.552429 336.164185,665.088623 
z"/>
<path fill="#1F84CD" opacity="1.000000" stroke="none" 
	d="
M338.141663,667.080017 
	C338.324219,667.044556 338.606079,667.261780 338.987549,667.729492 
	C338.805084,667.764282 338.523010,667.548462 338.141663,667.080017 
z"/>
<path fill="#1F84CD" opacity="1.000000" stroke="none" 
	d="
M342.085571,671.249023 
	C342.240997,671.173035 342.451508,671.326599 342.686584,671.730774 
	C342.534912,671.786011 342.344788,671.618408 342.085571,671.249023 
z"/>
<path fill="#1F84CD" opacity="1.000000" stroke="none" 
	d="
M343.139740,672.744629 
	C343.391327,672.704407 343.724792,672.991577 344.129028,673.605957 
	C343.873749,673.646118 343.547699,673.359070 343.139740,672.744629 
z"/>
<path fill="#1F84CD" opacity="1.000000" stroke="none" 
	d="
M352.215881,682.018127 
	C352.480743,681.907654 352.812164,682.083740 353.212402,682.543213 
	C352.948303,682.652588 352.615356,682.478638 352.215881,682.018127 
z"/>
<path fill="#1F84CD" opacity="1.000000" stroke="none" 
	d="
M353.227875,683.009338 
	C353.497131,682.899231 353.824646,683.078369 354.218384,683.541748 
	C353.951752,683.650146 353.618927,683.474426 353.227875,683.009338 
z"/>
<path fill="#1879C4" opacity="1.000000" stroke="none" 
	d="
M519.948853,488.808380 
	C520.713562,487.925751 521.478271,487.043121 522.785217,485.952179 
	C523.535828,485.436066 523.744141,485.128235 523.952515,484.820435 
	C524.393311,484.254730 524.834167,483.689026 525.799500,482.931641 
	C526.533508,482.433716 526.743042,482.127502 526.952576,481.821289 
	C527.402100,481.257263 527.851624,480.693237 528.820984,479.939209 
	C529.545959,479.449036 529.751038,479.148926 529.956177,478.848816 
	C529.956177,478.848816 529.962158,478.963287 530.162415,478.858612 
	C530.559204,478.453491 530.755737,478.153046 530.952271,477.852600 
	C530.952271,477.852600 530.962036,477.962128 531.163452,477.857971 
	C531.560791,477.453644 531.756714,477.153503 531.952637,476.853394 
	C531.952576,476.853363 531.962280,476.962677 532.164185,476.857147 
	C532.559937,476.448730 532.753784,476.145844 532.947571,475.842926 
	C532.947571,475.842926 532.958191,475.958557 533.158936,475.855225 
	C533.556030,475.449585 533.752319,475.147278 533.948608,474.844971 
	C533.948608,474.844940 533.962402,474.960968 534.162964,474.849731 
	C534.558350,474.428375 534.753113,474.118256 534.947876,473.808105 
	C534.948975,473.478027 535.091492,473.228790 535.854675,472.907166 
	C536.540344,472.452209 536.746765,472.150482 536.953186,471.848755 
	C536.953186,471.848755 536.962341,471.962402 537.163635,471.855469 
	C537.562256,471.445251 537.759521,471.141998 537.956787,470.838745 
	C537.970947,470.509094 538.117676,470.256439 538.873657,469.918365 
	C539.551208,469.454285 539.752075,469.152618 539.952942,468.850952 
	C539.952942,468.850952 539.961121,468.961731 540.162048,468.860168 
	C540.561401,468.462555 540.759766,468.166473 540.958130,467.870422 
	C540.958191,467.870422 540.967346,467.969116 541.167419,467.859619 
	C541.565125,467.455536 541.762695,467.160980 541.960327,466.866455 
	C541.960327,466.866455 541.969666,466.968964 542.174194,466.853455 
	C542.567810,466.425659 542.756958,466.113434 542.946167,465.801208 
	C542.949768,465.467468 543.096985,465.218781 543.956604,464.982025 
	C545.002563,464.223541 545.479736,463.538147 545.956909,462.852753 
	C546.410522,462.282776 546.864136,461.712799 547.833618,460.947418 
	C548.555969,460.460175 548.762451,460.168396 548.968933,459.876617 
	C567.536011,441.713776 586.072815,423.519775 604.684082,405.402313 
	C612.918945,397.385956 621.095642,389.289398 629.679321,381.657318 
	C638.739197,373.601837 649.200195,373.187927 659.848267,378.121216 
	C669.581116,382.630432 673.249573,391.877777 671.868164,403.587891 
	C670.751953,413.049957 664.229919,418.890717 658.903259,425.467255 
	C627.169983,464.646332 595.219421,503.649506 563.339600,542.709900 
	C542.193970,568.618286 521.104492,594.572815 499.863861,620.403015 
	C492.598816,629.237854 480.655884,629.355713 473.133575,620.881042 
	C435.876770,578.907410 398.619812,536.933899 361.454254,494.879578 
	C351.947693,484.122498 351.320312,467.486237 359.670898,457.749329 
	C369.630676,446.135925 387.233337,442.775513 399.224915,451.782715 
	C409.945953,459.835663 419.447601,469.544617 429.267548,478.757141 
	C444.818481,493.346069 460.269531,508.044464 475.569092,522.896179 
	C479.152802,526.375000 481.456909,526.261230 484.933289,522.700378 
	C493.773376,513.645569 503.018799,504.986511 512.761719,496.031525 
	C513.914551,495.207611 514.407532,494.521301 514.900574,493.834961 
	C514.900574,493.834961 514.933960,493.936249 515.143127,493.843964 
	C515.550110,493.448151 515.747925,493.144623 515.945740,492.841064 
	C515.945740,492.841064 515.957642,492.957184 516.157593,492.854004 
	C516.554932,492.449829 516.752380,492.148804 516.949890,491.847778 
	C516.949890,491.847809 516.960510,491.960541 517.160767,491.854797 
	C517.556396,491.446747 517.751709,491.144470 517.947021,490.842194 
	C517.947021,490.842194 517.958008,490.958191 518.158447,490.851929 
	C518.552551,490.439850 518.746094,490.134003 518.939697,489.828156 
	C518.939697,489.828156 518.955872,489.953064 519.155029,489.845245 
	C519.552429,489.427734 519.750671,489.118073 519.948853,488.808380 
z"/>
<path fill="#0766BB" opacity="1.000000" stroke="none" 
	d="
M514.613892,493.953674 
	C514.407532,494.521301 513.914551,495.207611 513.061401,495.904083 
	C513.243225,495.300262 513.785217,494.686310 514.613892,493.953674 
z"/>
<path fill="#0766BB" opacity="1.000000" stroke="none" 
	d="
M545.680176,462.983185 
	C545.479736,463.538147 545.002563,464.223541 544.175903,464.928833 
	C544.352051,464.337067 544.877686,463.725342 545.680176,462.983185 
z"/>
<path fill="#0766BB" opacity="1.000000" stroke="none" 
	d="
M548.715210,459.978699 
	C548.762451,460.168396 548.555969,460.460175 548.097534,460.857849 
	C548.050842,460.669403 548.256165,460.375092 548.715210,459.978699 
z"/>
<path fill="#0766BB" opacity="1.000000" stroke="none" 
	d="
M542.694519,465.920349 
	C542.756958,466.113434 542.567810,466.425659 542.122681,466.851318 
	C542.058838,466.656342 542.250854,466.347931 542.694519,465.920349 
z"/>
<path fill="#0766BB" opacity="1.000000" stroke="none" 
	d="
M541.709229,466.970032 
	C541.762695,467.160980 541.565125,467.455536 541.117920,467.857178 
	C541.064941,467.667419 541.261536,467.370544 541.709229,466.970032 
z"/>
<path fill="#0766BB" opacity="1.000000" stroke="none" 
	d="
M540.700317,467.963318 
	C540.759766,468.166473 540.561401,468.462555 540.106689,468.855682 
	C540.047729,468.653900 540.245056,468.355072 540.700317,467.963318 
z"/>
<path fill="#0766BB" opacity="1.000000" stroke="none" 
	d="
M539.694458,468.952148 
	C539.752075,469.152618 539.551208,469.454285 539.091919,469.857361 
	C539.034302,469.656952 539.235168,469.355164 539.694458,468.952148 
z"/>
<path fill="#0766BB" opacity="1.000000" stroke="none" 
	d="
M537.700256,470.943481 
	C537.759521,471.141998 537.562256,471.445251 537.106750,471.851654 
	C537.046936,471.652588 537.245361,471.350372 537.700256,470.943481 
z"/>
<path fill="#0766BB" opacity="1.000000" stroke="none" 
	d="
M536.692200,471.948364 
	C536.746765,472.150482 536.540344,472.452209 536.071899,472.853210 
	C536.016968,472.651031 536.224121,472.349518 536.692200,471.948364 
z"/>
<path fill="#0766BB" opacity="1.000000" stroke="none" 
	d="
M534.693481,473.922913 
	C534.753113,474.118256 534.558350,474.428375 534.104614,474.848145 
	C534.043396,474.651093 534.241211,474.344391 534.693481,473.922913 
z"/>
<path fill="#0766BB" opacity="1.000000" stroke="none" 
	d="
M533.689758,474.943085 
	C533.752319,475.147278 533.556030,475.449585 533.101074,475.851349 
	C533.038513,475.647614 533.234741,475.344391 533.689758,474.943085 
z"/>
<path fill="#0766BB" opacity="1.000000" stroke="none" 
	d="
M532.690002,475.942566 
	C532.753784,476.145844 532.559937,476.448730 532.109375,476.853699 
	C532.045959,476.651215 532.239197,476.346680 532.690002,475.942566 
z"/>
<path fill="#0766BB" opacity="1.000000" stroke="none" 
	d="
M531.695496,476.952026 
	C531.756714,477.153503 531.560791,477.453644 531.108582,477.854431 
	C531.047607,477.653595 531.242981,477.352112 531.695496,476.952026 
z"/>
<path fill="#0766BB" opacity="1.000000" stroke="none" 
	d="
M530.693970,477.950836 
	C530.755737,478.153046 530.559204,478.453491 530.105347,478.853333 
	C530.043945,478.651520 530.239807,478.350311 530.693970,477.950836 
z"/>
<path fill="#0766BB" opacity="1.000000" stroke="none" 
	d="
M529.698730,478.951843 
	C529.751038,479.148926 529.545959,479.449036 529.083130,479.853394 
	C529.030762,479.656738 529.235962,479.355804 529.698730,478.951843 
z"/>
<path fill="#0766BB" opacity="1.000000" stroke="none" 
	d="
M526.695923,481.935974 
	C526.743042,482.127502 526.533508,482.433716 526.059937,482.845337 
	C526.010315,482.650696 526.224792,482.350708 526.695923,481.935974 
z"/>
<path fill="#0766BB" opacity="1.000000" stroke="none" 
	d="
M523.693970,484.933167 
	C523.744141,485.128235 523.535828,485.436066 523.061768,485.846954 
	C523.009155,485.648651 523.222290,485.347290 523.693970,484.933167 
z"/>
<path fill="#0766BB" opacity="1.000000" stroke="none" 
	d="
M519.691406,488.920959 
	C519.750671,489.118073 519.552429,489.427734 519.092102,489.843323 
	C519.031311,489.643982 519.232666,489.338776 519.691406,488.920959 
z"/>
<path fill="#0766BB" opacity="1.000000" stroke="none" 
	d="
M518.678833,489.926270 
	C518.746094,490.134003 518.552551,490.439850 518.100342,490.848145 
	C518.033813,490.641846 518.225952,490.333130 518.678833,489.926270 
z"/>
<path fill="#0766BB" opacity="1.000000" stroke="none" 
	d="
M517.687744,490.939728 
	C517.751709,491.144470 517.556396,491.446747 517.104248,491.851318 
	C517.041138,491.648193 517.234802,491.342743 517.687744,490.939728 
z"/>
<path fill="#0766BB" opacity="1.000000" stroke="none" 
	d="
M516.691040,491.945190 
	C516.752380,492.148804 516.554932,492.449829 516.099304,492.850494 
	C516.038147,492.647675 516.235168,492.345154 516.691040,491.945190 
z"/>
<path fill="#0766BB" opacity="1.000000" stroke="none" 
	d="
M515.684204,492.936401 
	C515.747925,493.144623 515.550110,493.448151 515.089844,493.846680 
	C515.025818,493.638367 515.224243,493.335052 515.684204,492.936401 
z"/>
</svg>